<svg xmlns="http://www.w3.org/2000/svg" width="900" height="450" viewBox="0 0 900 450" style="background-color: #0f172a; font-family: Inter, system-ui, sans-serif;">
<text x="80" y="35" fill="#f8fafc" font-size="18" font-weight="700">Figure 1: Mean Response Time with 95% Confidence Intervals Across Scenarios</text>
<line x1="80" y1="390.0" x2="740" y2="390.0" stroke="#334155" stroke-dasharray="4,4" stroke-width="1"/>
<text x="68" y="394.0" fill="#94a3b8" font-size="12" text-anchor="end">0s</text>
<line x1="80" y1="326.53846153846155" x2="740" y2="326.53846153846155" stroke="#334155" stroke-dasharray="4,4" stroke-width="1"/>
<text x="68" y="330.53846153846155" fill="#94a3b8" font-size="12" text-anchor="end">50s</text>
<line x1="80" y1="263.0769230769231" x2="740" y2="263.0769230769231" stroke="#334155" stroke-dasharray="4,4" stroke-width="1"/>
<text x="68" y="267.0769230769231" fill="#94a3b8" font-size="12" text-anchor="end">100s</text>
<line x1="80" y1="199.61538461538464" x2="740" y2="199.61538461538464" stroke="#334155" stroke-dasharray="4,4" stroke-width="1"/>
<text x="68" y="203.61538461538464" fill="#94a3b8" font-size="12" text-anchor="end">150s</text>
<line x1="80" y1="136.15384615384613" x2="740" y2="136.15384615384613" stroke="#334155" stroke-dasharray="4,4" stroke-width="1"/>
<text x="68" y="140.15384615384613" fill="#94a3b8" font-size="12" text-anchor="end">200s</text>
<line x1="80" y1="72.69230769230768" x2="740" y2="72.69230769230768" stroke="#334155" stroke-dasharray="4,4" stroke-width="1"/>
<text x="68" y="76.69230769230768" fill="#94a3b8" font-size="12" text-anchor="end">250s</text>
<line x1="80" y1="390" x2="740" y2="390" stroke="#64748b" stroke-width="2"/>
<line x1="80" y1="60" x2="80" y2="390" stroke="#64748b" stroke-width="2"/>
<text x="35" y="225" fill="#cbd5e1" font-size="13" font-weight="600" transform="rotate(-90 35 225)" text-anchor="middle">Response Time (Seconds)</text>
<text x="146.0" y="415" fill="#f1f5f9" font-size="13" font-weight="600" text-anchor="middle">S1: Urban</text>
<rect x="91.88" y="293.39884615384614" width="18.48" height="96.60115384615385" rx="3" fill="#94a3b8" opacity="0.9"/>
<line x1="101.11999999999999" y1="296.22923076923075" x2="101.11999999999999" y2="290.5811538461538" stroke="#ffffff" stroke-width="1.5"/>
<line x1="98.11999999999999" y1="290.5811538461538" x2="104.11999999999999" y2="290.5811538461538" stroke="#ffffff" stroke-width="1.5"/>
<line x1="98.11999999999999" y1="296.22923076923075" x2="104.11999999999999" y2="296.22923076923075" stroke="#ffffff" stroke-width="1.5"/>
<rect x="114.32" y="284.48884615384617" width="18.48" height="105.51115384615383" rx="3" fill="#64748b" opacity="0.9"/>
<line x1="123.55999999999999" y1="287.9030769230769" x2="123.55999999999999" y2="281.0873076923077" stroke="#ffffff" stroke-width="1.5"/>
<line x1="120.55999999999999" y1="281.0873076923077" x2="126.55999999999999" y2="281.0873076923077" stroke="#ffffff" stroke-width="1.5"/>
<line x1="120.55999999999999" y1="287.9030769230769" x2="126.55999999999999" y2="287.9030769230769" stroke="#ffffff" stroke-width="1.5"/>
<rect x="136.76" y="256.185" width="18.48" height="133.815" rx="3" fill="#38bdf8" opacity="0.9"/>
<line x1="146.0" y1="261.56653846153847" x2="146.0" y2="250.81615384615387" stroke="#ffffff" stroke-width="1.5"/>
<line x1="143.0" y1="250.81615384615387" x2="149.0" y2="250.81615384615387" stroke="#ffffff" stroke-width="1.5"/>
<line x1="143.0" y1="261.56653846153847" x2="149.0" y2="261.56653846153847" stroke="#ffffff" stroke-width="1.5"/>
<rect x="159.2" y="256.185" width="18.48" height="133.815" rx="3" fill="#0284c7" opacity="0.9"/>
<line x1="168.44" y1="261.56653846153847" x2="168.44" y2="250.81615384615387" stroke="#ffffff" stroke-width="1.5"/>
<line x1="165.44" y1="250.81615384615387" x2="171.44" y2="250.81615384615387" stroke="#ffffff" stroke-width="1.5"/>
<line x1="165.44" y1="261.56653846153847" x2="171.44" y2="261.56653846153847" stroke="#ffffff" stroke-width="1.5"/>
<rect x="181.64" y="256.185" width="18.48" height="133.815" rx="3" fill="#10b981" opacity="0.9"/>
<line x1="190.88" y1="261.56653846153847" x2="190.88" y2="250.81615384615387" stroke="#ffffff" stroke-width="1.5"/>
<line x1="187.88" y1="250.81615384615387" x2="193.88" y2="250.81615384615387" stroke="#ffffff" stroke-width="1.5"/>
<line x1="187.88" y1="261.56653846153847" x2="193.88" y2="261.56653846153847" stroke="#ffffff" stroke-width="1.5"/>
<text x="278.0" y="415" fill="#f1f5f9" font-size="13" font-weight="600" text-anchor="middle">S2: Surge</text>
<rect x="223.88" y="227.00538461538463" width="18.48" height="162.99461538461537" rx="3" fill="#94a3b8" opacity="0.9"/>
<line x1="233.12" y1="231.20653846153846" x2="233.12" y2="222.79153846153844" stroke="#ffffff" stroke-width="1.5"/>
<line x1="230.12" y1="222.79153846153844" x2="236.12" y2="222.79153846153844" stroke="#ffffff" stroke-width="1.5"/>
<line x1="230.12" y1="231.20653846153846" x2="236.12" y2="231.20653846153846" stroke="#ffffff" stroke-width="1.5"/>
<rect x="246.32" y="212.4473076923077" width="18.48" height="177.5526923076923" rx="3" fill="#64748b" opacity="0.9"/>
<line x1="255.56" y1="216.91500000000002" x2="255.56" y2="207.97961538461539" stroke="#ffffff" stroke-width="1.5"/>
<line x1="252.56" y1="207.97961538461539" x2="258.56" y2="207.97961538461539" stroke="#ffffff" stroke-width="1.5"/>
<line x1="252.56" y1="216.91500000000002" x2="258.56" y2="216.91500000000002" stroke="#ffffff" stroke-width="1.5"/>
<rect x="268.76" y="178.82538461538462" width="18.48" height="211.17461538461538" rx="3" fill="#38bdf8" opacity="0.9"/>
<line x1="278.0" y1="183.90230769230772" x2="278.0" y2="173.74846153846156" stroke="#ffffff" stroke-width="1.5"/>
<line x1="275.0" y1="173.74846153846156" x2="281.0" y2="173.74846153846156" stroke="#ffffff" stroke-width="1.5"/>
<line x1="275.0" y1="183.90230769230772" x2="281.0" y2="183.90230769230772" stroke="#ffffff" stroke-width="1.5"/>
<rect x="291.2" y="178.82538461538462" width="18.48" height="211.17461538461538" rx="3" fill="#0284c7" opacity="0.9"/>
<line x1="300.44" y1="183.90230769230772" x2="300.44" y2="173.74846153846156" stroke="#ffffff" stroke-width="1.5"/>
<line x1="297.44" y1="173.74846153846156" x2="303.44" y2="173.74846153846156" stroke="#ffffff" stroke-width="1.5"/>
<line x1="297.44" y1="183.90230769230772" x2="303.44" y2="183.90230769230772" stroke="#ffffff" stroke-width="1.5"/>
<rect x="313.64" y="179.46" width="18.48" height="210.54" rx="3" fill="#10b981" opacity="0.9"/>
<line x1="322.88" y1="184.30846153846153" x2="322.88" y2="174.61153846153846" stroke="#ffffff" stroke-width="1.5"/>
<line x1="319.88" y1="174.61153846153846" x2="325.88" y2="174.61153846153846" stroke="#ffffff" stroke-width="1.5"/>
<line x1="319.88" y1="184.30846153846153" x2="325.88" y2="184.30846153846153" stroke="#ffffff" stroke-width="1.5"/>
<text x="410.0" y="415" fill="#f1f5f9" font-size="13" font-weight="600" text-anchor="middle">S3: Rural</text>
<rect x="355.88" y="184.77807692307692" width="18.48" height="205.22192307692308" rx="3" fill="#94a3b8" opacity="0.9"/>
<line x1="365.12" y1="197.33076923076922" x2="365.12" y2="172.2253846153846" stroke="#ffffff" stroke-width="1.5"/>
<line x1="362.12" y1="172.2253846153846" x2="368.12" y2="172.2253846153846" stroke="#ffffff" stroke-width="1.5"/>
<line x1="362.12" y1="197.33076923076922" x2="368.12" y2="197.33076923076922" stroke="#ffffff" stroke-width="1.5"/>
<rect x="378.32" y="120.21230769230772" width="18.48" height="269.7876923076923" rx="3" fill="#64748b" opacity="0.9"/>
<line x1="387.56" y1="137.53730769230768" x2="387.56" y2="102.88730769230767" stroke="#ffffff" stroke-width="1.5"/>
<line x1="384.56" y1="102.88730769230767" x2="390.56" y2="102.88730769230767" stroke="#ffffff" stroke-width="1.5"/>
<line x1="384.56" y1="137.53730769230768" x2="390.56" y2="137.53730769230768" stroke="#ffffff" stroke-width="1.5"/>
<rect x="400.76" y="106.41576923076923" width="18.48" height="283.58423076923077" rx="3" fill="#38bdf8" opacity="0.9"/>
<line x1="410.0" y1="127.0915384615385" x2="410.0" y2="85.74000000000001" stroke="#ffffff" stroke-width="1.5"/>
<line x1="407.0" y1="85.74000000000001" x2="413.0" y2="85.74000000000001" stroke="#ffffff" stroke-width="1.5"/>
<line x1="407.0" y1="127.0915384615385" x2="413.0" y2="127.0915384615385" stroke="#ffffff" stroke-width="1.5"/>
<rect x="423.2" y="106.41576923076923" width="18.48" height="283.58423076923077" rx="3" fill="#0284c7" opacity="0.9"/>
<line x1="432.44" y1="127.0915384615385" x2="432.44" y2="85.74000000000001" stroke="#ffffff" stroke-width="1.5"/>
<line x1="429.44" y1="85.74000000000001" x2="435.44" y2="85.74000000000001" stroke="#ffffff" stroke-width="1.5"/>
<line x1="429.44" y1="127.0915384615385" x2="435.44" y2="127.0915384615385" stroke="#ffffff" stroke-width="1.5"/>
<rect x="445.64" y="106.7203846153846" width="18.48" height="283.2796153846154" rx="3" fill="#10b981" opacity="0.9"/>
<line x1="454.88" y1="127.3453846153846" x2="454.88" y2="86.08269230769235" stroke="#ffffff" stroke-width="1.5"/>
<line x1="451.88" y1="86.08269230769235" x2="457.88" y2="86.08269230769235" stroke="#ffffff" stroke-width="1.5"/>
<line x1="451.88" y1="127.3453846153846" x2="457.88" y2="127.3453846153846" stroke="#ffffff" stroke-width="1.5"/>
<text x="542.0" y="415" fill="#f1f5f9" font-size="13" font-weight="600" text-anchor="middle">S4: Overcrowd</text>
<rect x="487.88" y="275.49" width="18.48" height="114.50999999999999" rx="3" fill="#94a3b8" opacity="0.9"/>
<line x1="497.12" y1="280.9476923076923" x2="497.12" y2="270.0196153846154" stroke="#ffffff" stroke-width="1.5"/>
<line x1="494.12" y1="270.0196153846154" x2="500.12" y2="270.0196153846154" stroke="#ffffff" stroke-width="1.5"/>
<line x1="494.12" y1="280.9476923076923" x2="500.12" y2="280.9476923076923" stroke="#ffffff" stroke-width="1.5"/>
<rect x="510.32" y="264.7396153846154" width="18.48" height="125.26038461538462" rx="3" fill="#64748b" opacity="0.9"/>
<line x1="519.56" y1="270.10846153846154" x2="519.56" y2="259.37076923076927" stroke="#ffffff" stroke-width="1.5"/>
<line x1="516.56" y1="259.37076923076927" x2="522.56" y2="259.37076923076927" stroke="#ffffff" stroke-width="1.5"/>
<line x1="516.56" y1="270.10846153846154" x2="522.56" y2="270.10846153846154" stroke="#ffffff" stroke-width="1.5"/>
<rect x="532.76" y="243.86076923076922" width="18.48" height="146.13923076923078" rx="3" fill="#38bdf8" opacity="0.9"/>
<line x1="542.0" y1="250.5876923076923" x2="542.0" y2="237.12115384615385" stroke="#ffffff" stroke-width="1.5"/>
<line x1="539.0" y1="237.12115384615385" x2="545.0" y2="237.12115384615385" stroke="#ffffff" stroke-width="1.5"/>
<line x1="539.0" y1="250.5876923076923" x2="545.0" y2="250.5876923076923" stroke="#ffffff" stroke-width="1.5"/>
<rect x="555.2" y="243.86076923076922" width="18.48" height="146.13923076923078" rx="3" fill="#0284c7" opacity="0.9"/>
<line x1="564.44" y1="250.5876923076923" x2="564.44" y2="237.12115384615385" stroke="#ffffff" stroke-width="1.5"/>
<line x1="561.44" y1="237.12115384615385" x2="567.44" y2="237.12115384615385" stroke="#ffffff" stroke-width="1.5"/>
<line x1="561.44" y1="250.5876923076923" x2="567.44" y2="250.5876923076923" stroke="#ffffff" stroke-width="1.5"/>
<rect x="577.64" y="243.86076923076922" width="18.48" height="146.13923076923078" rx="3" fill="#10b981" opacity="0.9"/>
<line x1="586.88" y1="250.5876923076923" x2="586.88" y2="237.12115384615385" stroke="#ffffff" stroke-width="1.5"/>
<line x1="583.88" y1="237.12115384615385" x2="589.88" y2="237.12115384615385" stroke="#ffffff" stroke-width="1.5"/>
<line x1="583.88" y1="250.5876923076923" x2="589.88" y2="250.5876923076923" stroke="#ffffff" stroke-width="1.5"/>
<text x="674.0" y="415" fill="#f1f5f9" font-size="13" font-weight="600" text-anchor="middle">S5: Ablation</text>
<rect x="619.88" y="285.82153846153847" width="18.48" height="104.17846153846153" rx="3" fill="#94a3b8" opacity="0.9"/>
<line x1="629.12" y1="289.7180769230769" x2="629.12" y2="281.9123076923077" stroke="#ffffff" stroke-width="1.5"/>
<line x1="626.12" y1="281.9123076923077" x2="632.12" y2="281.9123076923077" stroke="#ffffff" stroke-width="1.5"/>
<line x1="626.12" y1="289.7180769230769" x2="632.12" y2="289.7180769230769" stroke="#ffffff" stroke-width="1.5"/>
<rect x="642.32" y="275.14730769230766" width="18.48" height="114.85269230769231" rx="3" fill="#64748b" opacity="0.9"/>
<line x1="651.5600000000001" y1="279.23423076923075" x2="651.5600000000001" y2="271.0730769230769" stroke="#ffffff" stroke-width="1.5"/>
<line x1="648.5600000000001" y1="271.0730769230769" x2="654.5600000000001" y2="271.0730769230769" stroke="#ffffff" stroke-width="1.5"/>
<line x1="648.5600000000001" y1="279.23423076923075" x2="654.5600000000001" y2="279.23423076923075" stroke="#ffffff" stroke-width="1.5"/>
<rect x="664.76" y="249.39461538461538" width="18.48" height="140.60538461538462" rx="3" fill="#38bdf8" opacity="0.9"/>
<line x1="674.0" y1="254.26846153846154" x2="674.0" y2="244.52076923076922" stroke="#ffffff" stroke-width="1.5"/>
<line x1="671.0" y1="244.52076923076922" x2="677.0" y2="244.52076923076922" stroke="#ffffff" stroke-width="1.5"/>
<line x1="671.0" y1="254.26846153846154" x2="677.0" y2="254.26846153846154" stroke="#ffffff" stroke-width="1.5"/>
<rect x="687.2" y="249.39461538461538" width="18.48" height="140.60538461538462" rx="3" fill="#0284c7" opacity="0.9"/>
<line x1="696.44" y1="254.26846153846154" x2="696.44" y2="244.52076923076922" stroke="#ffffff" stroke-width="1.5"/>
<line x1="693.44" y1="244.52076923076922" x2="699.44" y2="244.52076923076922" stroke="#ffffff" stroke-width="1.5"/>
<line x1="693.44" y1="254.26846153846154" x2="699.44" y2="254.26846153846154" stroke="#ffffff" stroke-width="1.5"/>
<rect x="709.64" y="249.39461538461538" width="18.48" height="140.60538461538462" rx="3" fill="#10b981" opacity="0.9"/>
<line x1="718.88" y1="254.26846153846154" x2="718.88" y2="244.52076923076922" stroke="#ffffff" stroke-width="1.5"/>
<line x1="715.88" y1="244.52076923076922" x2="721.88" y2="244.52076923076922" stroke="#ffffff" stroke-width="1.5"/>
<line x1="715.88" y1="254.26846153846154" x2="721.88" y2="254.26846153846154" stroke="#ffffff" stroke-width="1.5"/>
<rect x="760" y="65" width="125" height="150" rx="6" fill="#1e293b" stroke="#334155" stroke-width="1"/>
<text x="770" y="80" fill="#94a3b8" font-size="12" font-weight="700">POLICIES</text>
<rect x="770" y="92" width="14" height="14" rx="2" fill="#94a3b8"/>
<text x="792" y="104" fill="#e2e8f0" font-size="12">B1</text>
<rect x="770" y="116" width="14" height="14" rx="2" fill="#64748b"/>
<text x="792" y="128" fill="#e2e8f0" font-size="12">B2</text>
<rect x="770" y="140" width="14" height="14" rx="2" fill="#38bdf8"/>
<text x="792" y="152" fill="#e2e8f0" font-size="12">P1</text>
<rect x="770" y="164" width="14" height="14" rx="2" fill="#0284c7"/>
<text x="792" y="176" fill="#e2e8f0" font-size="12">P2</text>
<rect x="770" y="188" width="14" height="14" rx="2" fill="#10b981"/>
<text x="792" y="200" fill="#e2e8f0" font-size="12">P3</text>
</svg>